<svg xmlns="http://www.w3.org/2000/svg" viewBox="0 0 128 128">
  <defs>
    <linearGradient id="grad" x1="0%" y1="0%" x2="100%" y2="100%">
      <stop offset="0%" style="stop-color:#e91e63"/>
      <stop offset="100%" style="stop-color:#c2185b"/>
    </linearGradient>
  </defs>
  <circle cx="64" cy="64" r="60" fill="url(#grad)"/>

  <!-- Thread line -->
  <path d="M45 30 L45 98" stroke="#f8bbd9" stroke-width="4" stroke-linecap="round"/>

  <!-- Tweet cards -->
  <rect x="52" y="28" width="42" height="22" rx="4" fill="white"/>
  <rect x="58" y="34" width="24" height="4" rx="2" fill="#f8bbd9"/>
  <rect x="58" y="42" width="18" height="3" rx="1" fill="#f8bbd9"/>

  <rect x="52" y="55" width="42" height="22" rx="4" fill="white"/>
  <rect x="58" y="61" width="26" height="4" rx="2" fill="#f8bbd9"/>
  <rect x="58" y="69" width="20" height="3" rx="1" fill="#f8bbd9"/>

  <rect x="52" y="82" width="42" height="22" rx="4" fill="white"/>
  <rect x="58" y="88" width="22" height="4" rx="2" fill="#f8bbd9"/>
  <rect x="58" y="96" width="16" height="3" rx="1" fill="#f8bbd9"/>

  <!-- Dots on thread -->
  <circle cx="45" cy="39" r="5" fill="white"/>
  <circle cx="45" cy="66" r="5" fill="white"/>
  <circle cx="45" cy="93" r="5" fill="white"/>
</svg>
