<svg xmlns="http://www.w3.org/2000/svg" viewBox="0 0 128 128">
  <defs>
    <linearGradient id="grad" x1="0%" y1="0%" x2="100%" y2="100%">
      <stop offset="0%" style="stop-color:#f59e0b"/>
      <stop offset="100%" style="stop-color:#d97706"/>
    </linearGradient>
  </defs>
  <circle cx="64" cy="64" r="60" fill="url(#grad)"/>

  <!-- Balance scale -->
  <line x1="64" y1="30" x2="64" y2="50" stroke="white" stroke-width="4" stroke-linecap="round"/>
  <line x1="35" y1="50" x2="93" y2="50" stroke="white" stroke-width="4" stroke-linecap="round"/>

  <!-- Left pan -->
  <line x1="35" y1="50" x2="35" y2="70" stroke="white" stroke-width="3"/>
  <path d="M22 70 Q35 85 48 70" fill="white" opacity="0.9"/>

  <!-- Right pan -->
  <line x1="93" y1="50" x2="93" y2="70" stroke="white" stroke-width="3"/>
  <path d="M80 70 Q93 85 106 70" fill="white" opacity="0.9"/>

  <!-- Stand -->
  <rect x="58" y="48" width="12" height="8" rx="2" fill="#fef3c7"/>
  <rect x="54" y="88" width="20" height="6" rx="2" fill="white"/>
  <rect x="60" y="54" width="8" height="36" fill="white"/>

  <!-- Handshake icon -->
  <g transform="translate(44, 68) scale(0.6)">
    <path d="M10 20 C10 15 15 12 20 15 L30 22 L35 18 C40 15 45 17 45 22 L45 28 L35 35 L25 35 L15 28 Z" fill="#fef3c7" stroke="white" stroke-width="2"/>
  </g>
</svg>
