<svg xmlns="http://www.w3.org/2000/svg" viewBox="0 0 128 128">
  <defs>
    <linearGradient id="grad" x1="0%" y1="0%" x2="100%" y2="100%">
      <stop offset="0%" style="stop-color:#10b981"/>
      <stop offset="100%" style="stop-color:#059669"/>
    </linearGradient>
  </defs>
  <circle cx="64" cy="64" r="60" fill="url(#grad)"/>

  <!-- Calendar -->
  <rect x="30" y="32" width="68" height="60" rx="6" fill="white"/>
  <rect x="30" y="32" width="68" height="18" rx="6" fill="#d1fae5"/>
  <rect x="30" y="44" width="68" height="6" fill="#d1fae5"/>

  <!-- Calendar rings -->
  <rect x="44" y="28" width="6" height="12" rx="2" fill="#059669"/>
  <rect x="78" y="28" width="6" height="12" rx="2" fill="#059669"/>

  <!-- Days -->
  <circle cx="45" cy="62" r="5" fill="#e5e5e5"/>
  <circle cx="64" cy="62" r="5" fill="#e5e5e5"/>
  <circle cx="83" cy="62" r="5" fill="#10b981"/>

  <circle cx="45" cy="78" r="5" fill="#10b981"/>
  <circle cx="64" cy="78" r="5" fill="#10b981"/>
  <circle cx="83" cy="78" r="5" fill="#e5e5e5"/>

  <!-- Beach/Palm icon -->
  <circle cx="95" cy="92" r="14" fill="#a7f3d0"/>
  <path d="M92 98 L92 88 Q95 82 100 86 Q95 80 88 84 Q91 78 98 78" stroke="#059669" stroke-width="2" fill="none" stroke-linecap="round"/>
</svg>
