<svg xmlns="http://www.w3.org/2000/svg" viewBox="0 0 128 128">
  <defs>
    <linearGradient id="grad" x1="0%" y1="0%" x2="100%" y2="100%">
      <stop offset="0%" style="stop-color:#eab308"/>
      <stop offset="100%" style="stop-color:#ca8a04"/>
    </linearGradient>
  </defs>
  <circle cx="64" cy="64" r="60" fill="url(#grad)"/>

  <!-- Person -->
  <circle cx="50" cy="42" r="14" fill="white"/>
  <path d="M28 75 Q28 58 50 58 Q72 58 72 75 L72 82 L28 82 Z" fill="white"/>

  <!-- Speech wave -->
  <path d="M78 40 Q85 40 85 48 Q85 56 78 56" stroke="white" stroke-width="4" fill="none" stroke-linecap="round"/>
  <path d="M84 34 Q95 34 95 48 Q95 62 84 62" stroke="white" stroke-width="4" fill="none" stroke-linecap="round"/>
  <path d="M90 28 Q105 28 105 48 Q105 68 90 68" stroke="white" stroke-width="4" fill="none" stroke-linecap="round"/>

  <!-- Name tag -->
  <rect x="35" y="88" width="58" height="18" rx="3" fill="white"/>
  <rect x="40" y="92" width="20" height="3" rx="1" fill="#fef08a"/>
  <rect x="40" y="98" width="48" height="4" rx="2" fill="#ca8a04"/>
</svg>
