<svg xmlns="http://www.w3.org/2000/svg" viewBox="0 0 128 128">
  <defs>
    <linearGradient id="grad" x1="0%" y1="0%" x2="100%" y2="100%">
      <stop offset="0%" style="stop-color:#facc15"/>
      <stop offset="100%" style="stop-color:#eab308"/>
    </linearGradient>
  </defs>
  <circle cx="64" cy="64" r="60" fill="url(#grad)"/>

  <!-- Product box -->
  <rect x="35" y="40" width="58" height="48" rx="4" fill="white"/>
  <rect x="35" y="40" width="58" height="14" rx="4" fill="#fef3c7"/>
  <rect x="35" y="50" width="58" height="4" fill="#fef3c7"/>

  <!-- Product lines -->
  <rect x="42" y="60" width="44" height="4" rx="2" fill="#eab308"/>
  <rect x="42" y="70" width="36" height="3" rx="1" fill="#fde047"/>
  <rect x="42" y="78" width="40" height="3" rx="1" fill="#fde047"/>

  <!-- Price tag -->
  <circle cx="88" cy="35" r="14" fill="white"/>
  <text x="88" y="40" font-family="Arial" font-size="14" font-weight="bold" fill="#eab308" text-anchor="middle">$</text>

  <!-- Stars -->
  <g fill="white" opacity="0.9">
    <polygon points="28,50 30,54 34,54 31,57 32,61 28,58 24,61 25,57 22,54 26,54" transform="scale(0.6) translate(10,40)"/>
    <polygon points="28,50 30,54 34,54 31,57 32,61 28,58 24,61 25,57 22,54 26,54" transform="scale(0.5) translate(170,130)"/>
  </g>
</svg>
