<svg xmlns="http://www.w3.org/2000/svg" viewBox="0 0 128 128"><defs><linearGradient id="a" x1="0%" y1="0%" x2="100%" y2="100%"><stop offset="0%" style="stop-color:#14b8a6"/><stop offset="100%" style="stop-color:#0d9488"/></linearGradient></defs><rect x="10" y="10" width="108" height="108" rx="12" fill="#1e293b"/><rect x="18" y="18" width="32" height="32" rx="6" fill="url(#a)"/><text x="34" y="42" font-size="20" text-anchor="middle">🍎</text><rect x="54" y="18" width="32" height="32" rx="6" fill="url(#a)"/><text x="70" y="42" font-size="20" text-anchor="middle">🍊</text><rect x="90" y="18" width="32" height="32" rx="6" fill="url(#a)"/><text x="106" y="42" font-size="20" text-anchor="middle">🍋</text><rect x="18" y="54" width="32" height="32" rx="6" fill="url(#a)"/><text x="34" y="78" font-size="20" text-anchor="middle">🍇</text><rect x="54" y="54" width="32" height="32" rx="6" fill="#2d3748" stroke="#14b8a6" stroke-width="2" stroke-dasharray="4 2"/><rect x="90" y="54" width="32" height="32" rx="6" fill="url(#a)"/><text x="106" y="78" font-size="20" text-anchor="middle">🍓</text><rect x="18" y="90" width="32" height="32" rx="6" fill="url(#a)"/><text x="34" y="114" font-size="20" text-anchor="middle">🍑</text><rect x="54" y="90" width="32" height="32" rx="6" fill="url(#a)"/><text x="70" y="114" font-size="20" text-anchor="middle">🥝</text><rect x="90" y="90" width="32" height="32" rx="6" fill="url(#a)"/><text x="106" y="114" font-size="20" text-anchor="middle">🍒</text></svg>
