<svg xmlns="http://www.w3.org/2000/svg" viewBox="0 0 128 128">
  <defs>
    <linearGradient id="grad" x1="0%" y1="0%" x2="100%" y2="100%">
      <stop offset="0%" style="stop-color:#22c55e"/>
      <stop offset="100%" style="stop-color:#16a34a"/>
    </linearGradient>
  </defs>
  <circle cx="64" cy="64" r="60" fill="url(#grad)"/>

  <!-- Ruler -->
  <rect x="24" y="50" width="80" height="28" rx="4" fill="white"/>

  <!-- Ruler marks -->
  <rect x="32" y="50" width="2" height="14" fill="#16a34a"/>
  <rect x="42" y="50" width="2" height="10" fill="#16a34a"/>
  <rect x="52" y="50" width="2" height="14" fill="#16a34a"/>
  <rect x="62" y="50" width="2" height="10" fill="#16a34a"/>
  <rect x="72" y="50" width="2" height="14" fill="#16a34a"/>
  <rect x="82" y="50" width="2" height="10" fill="#16a34a"/>
  <rect x="92" y="50" width="2" height="14" fill="#16a34a"/>

  <!-- Numbers -->
  <text x="32" y="72" font-family="Arial, sans-serif" font-size="8" fill="#16a34a">0</text>
  <text x="52" y="72" font-family="Arial, sans-serif" font-size="8" fill="#16a34a">1</text>
  <text x="72" y="72" font-family="Arial, sans-serif" font-size="8" fill="#16a34a">2</text>
  <text x="92" y="72" font-family="Arial, sans-serif" font-size="8" fill="#16a34a">3</text>

  <!-- Conversion arrows -->
  <path d="M42 90 L52 90 M48 86 L52 90 L48 94" stroke="white" stroke-width="3" stroke-linecap="round" fill="none"/>
  <path d="M86 90 L76 90 M80 86 L76 90 L80 94" stroke="white" stroke-width="3" stroke-linecap="round" fill="none"/>
</svg>
