<svg xmlns="http://www.w3.org/2000/svg" viewBox="0 0 128 128">
  <defs>
    <linearGradient id="grad" x1="0%" y1="0%" x2="100%" y2="100%">
      <stop offset="0%" style="stop-color:#e879f9"/>
      <stop offset="100%" style="stop-color:#d946ef"/>
    </linearGradient>
  </defs>
  <circle cx="64" cy="64" r="60" fill="url(#grad)"/>

  <!-- Newsletter/Paper -->
  <rect x="30" y="28" width="68" height="72" rx="4" fill="white"/>

  <!-- Header bar -->
  <rect x="30" y="28" width="68" height="18" rx="4" fill="#fae8ff"/>
  <rect x="30" y="42" width="68" height="4" fill="#fae8ff"/>

  <!-- Title lines -->
  <rect x="38" y="52" width="52" height="5" rx="2" fill="#d946ef"/>

  <!-- Content lines -->
  <rect x="38" y="64" width="52" height="3" rx="1" fill="#fae8ff"/>
  <rect x="38" y="72" width="44" height="3" rx="1" fill="#fae8ff"/>
  <rect x="38" y="80" width="48" height="3" rx="1" fill="#fae8ff"/>
  <rect x="38" y="88" width="36" height="3" rx="1" fill="#fae8ff"/>

  <!-- Megaphone -->
  <path d="M85 55 L105 45 L105 75 L85 65 Z" fill="white" opacity="0.9"/>
  <rect x="80" y="55" width="8" height="10" rx="2" fill="white" opacity="0.9"/>

  <!-- Sound waves -->
  <path d="M108 55 Q112 60 108 65" stroke="white" stroke-width="2" fill="none" stroke-linecap="round" opacity="0.7"/>
  <path d="M112 50 Q118 60 112 70" stroke="white" stroke-width="2" fill="none" stroke-linecap="round" opacity="0.5"/>
</svg>
