<svg xmlns="http://www.w3.org/2000/svg" viewBox="0 0 128 128">
  <defs>
    <linearGradient id="grad" x1="0%" y1="0%" x2="100%" y2="100%">
      <stop offset="0%" style="stop-color:#14b8a6"/>
      <stop offset="100%" style="stop-color:#0d9488"/>
    </linearGradient>
  </defs>
  <circle cx="64" cy="64" r="60" fill="url(#grad)"/>

  <!-- Two puzzle pieces connecting -->
  <path d="M30 45 L55 45 L55 50 Q50 50 50 55 Q50 60 55 60 L55 75 L30 75 L30 60 Q35 60 35 55 Q35 50 30 50 Z" fill="white"/>
  <path d="M60 45 L60 50 Q55 50 55 55 Q55 60 60 60 L60 75 L85 75 L85 60 Q80 60 80 55 Q80 50 85 50 L85 45 Z" fill="#ccfbf1"/>

  <!-- Handshake below -->
  <path d="M44 85 Q50 80 56 85 L64 85 Q70 80 76 85 L84 85" stroke="white" stroke-width="4" fill="none" stroke-linecap="round"/>
  <circle cx="64" cy="92" r="8" fill="white" opacity="0.8"/>

  <!-- Sparkles -->
  <circle cx="95" cy="35" r="4" fill="white" opacity="0.8"/>
  <circle cx="33" cy="30" r="3" fill="white" opacity="0.7"/>
</svg>
