<svg xmlns="http://www.w3.org/2000/svg" viewBox="0 0 128 128"><defs><linearGradient id="a" x1="0%" y1="0%" x2="100%" y2="100%"><stop offset="0%" style="stop-color:#ec4899"/><stop offset="100%" style="stop-color:#db2777"/></linearGradient></defs><circle cx="64" cy="64" r="60" fill="url(#a)"/><rect x="24" y="30" width="20" height="20" rx="3" fill="#ef4444"/><rect x="44" y="30" width="20" height="20" rx="3" fill="#ef4444"/><rect x="64" y="30" width="20" height="20" rx="3" fill="#22c55e"/><rect x="84" y="30" width="20" height="20" rx="3" fill="#3b82f6"/><rect x="24" y="50" width="20" height="20" rx="3" fill="#ef4444"/><rect x="44" y="50" width="20" height="20" rx="3" fill="#eab308"/><rect x="64" y="50" width="20" height="20" rx="3" fill="#8b5cf6"/><rect x="84" y="50" width="20" height="20" rx="3" fill="#22c55e"/><rect x="24" y="70" width="20" height="20" rx="3" fill="#f97316"/><rect x="44" y="70" width="20" height="20" rx="3" fill="#3b82f6"/><rect x="64" y="70" width="20" height="20" rx="3" fill="#eab308"/><rect x="84" y="70" width="20" height="20" rx="3" fill="#ef4444"/></svg>
