<svg xmlns="http://www.w3.org/2000/svg" viewBox="0 0 128 128">
  <defs>
    <linearGradient id="grad" x1="0%" y1="0%" x2="100%" y2="100%">
      <stop offset="0%" style="stop-color:#f59e0b"/>
      <stop offset="100%" style="stop-color:#d97706"/>
    </linearGradient>
  </defs>
  <circle cx="64" cy="64" r="60" fill="url(#grad)"/>

  <!-- Comment bubble -->
  <path d="M30 40 h58 a8 8 0 0 1 8 8 v32 a8 8 0 0 1 -8 8 h-38 l-16 16 v-16 h-4 a8 8 0 0 1 -8 -8 v-32 a8 8 0 0 1 8 -8z" fill="white"/>

  <!-- Text lines -->
  <rect x="38" y="52" width="42" height="4" rx="2" fill="#fde68a"/>
  <rect x="38" y="62" width="34" height="4" rx="2" fill="#fde68a"/>
  <rect x="38" y="72" width="38" height="4" rx="2" fill="#fde68a"/>
</svg>
