<svg xmlns="http://www.w3.org/2000/svg" viewBox="0 0 128 128">
  <defs>
    <linearGradient id="grad" x1="0%" y1="0%" x2="100%" y2="100%">
      <stop offset="0%" style="stop-color:#f59e0b"/>
      <stop offset="100%" style="stop-color:#d97706"/>
    </linearGradient>
    <linearGradient id="sunGrad" x1="0%" y1="0%" x2="0%" y2="100%">
      <stop offset="0%" style="stop-color:#fcd34d"/>
      <stop offset="100%" style="stop-color:#f59e0b"/>
    </linearGradient>
  </defs>
  <circle cx="64" cy="64" r="60" fill="url(#grad)"/>
  <!-- Sunrise -->
  <path d="M20 80 Q64 50 108 80" fill="none" stroke="#fef3c7" stroke-width="3"/>
  <circle cx="64" cy="70" r="22" fill="url(#sunGrad)"/>
  <!-- Sun rays -->
  <line x1="64" y1="42" x2="64" y2="32" stroke="#fef3c7" stroke-width="3" stroke-linecap="round"/>
  <line x1="84" y1="50" x2="92" y2="42" stroke="#fef3c7" stroke-width="3" stroke-linecap="round"/>
  <line x1="44" y1="50" x2="36" y2="42" stroke="#fef3c7" stroke-width="3" stroke-linecap="round"/>
  <!-- Checklist -->
  <rect x="40" y="86" width="48" height="30" rx="4" fill="white"/>
  <line x1="48" y1="94" x2="56" y2="94" stroke="#fde68a" stroke-width="2"/>
  <circle cx="62" cy="94" r="3" fill="#10b981"/>
  <line x1="68" y1="94" x2="80" y2="94" stroke="#fde68a" stroke-width="2"/>
  <line x1="48" y1="102" x2="56" y2="102" stroke="#fde68a" stroke-width="2"/>
  <circle cx="62" cy="102" r="3" fill="#10b981"/>
  <line x1="68" y1="102" x2="80" y2="102" stroke="#fde68a" stroke-width="2"/>
  <line x1="48" y1="110" x2="56" y2="110" stroke="#fde68a" stroke-width="2"/>
  <circle cx="62" cy="110" r="3" fill="#d1d5db"/>
  <line x1="68" y1="110" x2="80" y2="110" stroke="#fde68a" stroke-width="2"/>
</svg>
