<svg xmlns="http://www.w3.org/2000/svg" viewBox="0 0 128 128">
  <defs>
    <linearGradient id="grad" x1="0%" y1="0%" x2="100%" y2="100%">
      <stop offset="0%" style="stop-color:#eab308"/>
      <stop offset="100%" style="stop-color:#ca8a04"/>
    </linearGradient>
  </defs>
  <circle cx="64" cy="64" r="60" fill="url(#grad)"/>

  <!-- Chart going up -->
  <rect x="25" y="45" width="78" height="50" rx="4" fill="white"/>

  <!-- Bar chart -->
  <rect x="35" y="70" width="12" height="20" rx="2" fill="#fef9c3"/>
  <rect x="52" y="60" width="12" height="30" rx="2" fill="#fde047"/>
  <rect x="69" y="50" width="12" height="40" rx="2" fill="#eab308"/>
  <rect x="86" y="38" width="12" height="52" rx="2" fill="#ca8a04"/>

  <!-- Arrow up -->
  <path d="M40 55 L92 35" stroke="white" stroke-width="3" fill="none" stroke-linecap="round"/>
  <path d="M85 30 L95 35 L90 42" stroke="white" stroke-width="3" fill="none" stroke-linecap="round" stroke-linejoin="round"/>

  <!-- Dollar sign -->
  <circle cx="95" cy="30" r="12" fill="white"/>
  <text x="95" y="35" text-anchor="middle" fill="#ca8a04" font-size="16" font-weight="bold">$</text>

  <!-- Sparkle -->
  <path d="M30 35 L32 40 L37 40 L33 43 L35 48 L30 45 L25 48 L27 43 L23 40 L28 40 Z" fill="white" opacity="0.8"/>
</svg>
