<svg xmlns="http://www.w3.org/2000/svg" viewBox="0 0 128 128">
  <defs>
    <linearGradient id="grad" x1="0%" y1="0%" x2="100%" y2="100%">
      <stop offset="0%" style="stop-color:#0f172a"/>
      <stop offset="100%" style="stop-color:#1e293b"/>
    </linearGradient>
  </defs>
  <circle cx="64" cy="64" r="60" fill="url(#grad)"/>
  <!-- Workspace folders -->
  <rect x="20" y="30" width="40" height="32" rx="4" fill="#3b82f6"/>
  <rect x="20" y="30" width="40" height="10" rx="4" ry="4" fill="#60a5fa"/>
  <rect x="24" y="34" width="12" height="4" rx="2" fill="#1e40af"/>

  <rect x="68" y="30" width="40" height="32" rx="4" fill="#22c55e"/>
  <rect x="68" y="30" width="40" height="10" rx="4" ry="4" fill="#4ade80"/>
  <rect x="72" y="34" width="12" height="4" rx="2" fill="#166534"/>

  <rect x="20" y="68" width="40" height="32" rx="4" fill="#f59e0b"/>
  <rect x="20" y="68" width="40" height="10" rx="4" ry="4" fill="#fbbf24"/>
  <rect x="24" y="72" width="12" height="4" rx="2" fill="#b45309"/>

  <rect x="68" y="68" width="40" height="32" rx="4" fill="#8b5cf6"/>
  <rect x="68" y="68" width="40" height="10" rx="4" ry="4" fill="#a78bfa"/>
  <rect x="72" y="72" width="12" height="4" rx="2" fill="#6d28d9"/>

  <!-- Active indicator -->
  <circle cx="54" cy="46" r="6" fill="white"/>
  <path d="M51 46 L53 48 L57 44" fill="none" stroke="#3b82f6" stroke-width="2" stroke-linecap="round"/>
</svg>
