<svg xmlns="http://www.w3.org/2000/svg" viewBox="0 0 128 128">
  <defs>
    <linearGradient id="grad" x1="0%" y1="0%" x2="100%" y2="100%">
      <stop offset="0%" style="stop-color:#8b5cf6"/>
      <stop offset="100%" style="stop-color:#7c3aed"/>
    </linearGradient>
  </defs>
  <circle cx="64" cy="64" r="60" fill="url(#grad)"/>

  <!-- Microphone -->
  <rect x="52" y="35" width="24" height="40" rx="12" fill="white"/>
  <rect x="58" y="45" width="12" height="6" rx="2" fill="#ede9fe"/>

  <!-- Stand -->
  <rect x="62" y="75" width="4" height="15" fill="white"/>
  <rect x="52" y="88" width="24" height="4" rx="2" fill="white"/>

  <!-- Sound waves -->
  <path d="M45 55 Q40 55 40 65 Q40 75 45 75" stroke="#ede9fe" stroke-width="3" fill="none" stroke-linecap="round"/>
  <path d="M83 55 Q88 55 88 65 Q88 75 83 75" stroke="#ede9fe" stroke-width="3" fill="none" stroke-linecap="round"/>

  <!-- Notes icon -->
  <rect x="80" y="38" width="18" height="22" rx="2" fill="#ede9fe"/>
  <rect x="84" y="43" width="10" height="2" rx="1" fill="#7c3aed"/>
  <rect x="84" y="48" width="8" height="2" rx="1" fill="#7c3aed"/>
  <rect x="84" y="53" width="10" height="2" rx="1" fill="#7c3aed"/>
</svg>
