<svg xmlns="http://www.w3.org/2000/svg" viewBox="0 0 128 128"><defs><linearGradient id="a" x1="0%" y1="0%" x2="100%" y2="100%"><stop offset="0%" style="stop-color:#f59e0b"/><stop offset="100%" style="stop-color:#d97706"/></linearGradient></defs><circle cx="64" cy="64" r="60" fill="url(#a)"/><polygon points="45,30 60,22 75,30 75,46 60,54 45,46" fill="#ef4444"/><polygon points="75,30 90,22 105,30 105,46 90,54 75,46" fill="#22c55e"/><polygon points="30,54 45,46 60,54 60,70 45,78 30,70" fill="#3b82f6"/><polygon points="60,54 75,46 90,54 90,70 75,78 60,70" fill="#ef4444"/><polygon points="45,78 60,70 75,78 75,94 60,102 45,94" fill="#ef4444"/><polygon points="75,78 90,70 105,78 105,94 90,102 75,94" fill="#a855f7"/></svg>
