<svg xmlns="http://www.w3.org/2000/svg" viewBox="0 0 128 128">
  <defs>
    <linearGradient id="grad" x1="0%" y1="0%" x2="100%" y2="100%">
      <stop offset="0%" style="stop-color:#ec4899"/>
      <stop offset="100%" style="stop-color:#db2777"/>
    </linearGradient>
  </defs>
  <circle cx="64" cy="64" r="60" fill="url(#grad)"/>

  <!-- Document -->
  <rect x="32" y="24" width="64" height="80" rx="4" fill="white"/>

  <!-- Header bar -->
  <rect x="32" y="24" width="64" height="16" rx="4" fill="#fce7f3"/>
  <rect x="32" y="36" width="64" height="4" fill="#fce7f3"/>

  <!-- Title line -->
  <rect x="40" y="48" width="48" height="4" rx="2" fill="#db2777"/>

  <!-- Sections -->
  <rect x="40" y="58" width="20" height="3" rx="1" fill="#fbcfe8"/>
  <rect x="40" y="64" width="48" height="2" rx="1" fill="#e5e5e5"/>
  <rect x="40" y="69" width="40" height="2" rx="1" fill="#e5e5e5"/>

  <rect x="40" y="78" width="20" height="3" rx="1" fill="#fbcfe8"/>
  <rect x="40" y="84" width="48" height="2" rx="1" fill="#e5e5e5"/>
  <rect x="40" y="89" width="36" height="2" rx="1" fill="#e5e5e5"/>

  <!-- Checkmark -->
  <circle cx="90" cy="88" r="12" fill="#db2777"/>
  <path d="M84 88 L88 92 L96 84" stroke="white" stroke-width="3" fill="none" stroke-linecap="round" stroke-linejoin="round"/>
</svg>
