<svg xmlns="http://www.w3.org/2000/svg" viewBox="0 0 128 128">
  <defs>
    <linearGradient id="grad" x1="0%" y1="0%" x2="100%" y2="100%">
      <stop offset="0%" style="stop-color:#10b981"/>
      <stop offset="100%" style="stop-color:#059669"/>
    </linearGradient>
  </defs>
  <circle cx="64" cy="64" r="60" fill="url(#grad)"/>

  <!-- Heart with person -->
  <path d="M64 85 C40 65 35 50 45 40 C55 30 64 40 64 45 C64 40 73 30 83 40 C93 50 88 65 64 85 Z" fill="white"/>

  <!-- Person inside heart -->
  <circle cx="64" cy="52" r="8" fill="#a7f3d0"/>
  <path d="M54 72 C54 62 64 58 64 58 C64 58 74 62 74 72" fill="#a7f3d0"/>

  <!-- Circular arrows (retention cycle) -->
  <path d="M30 64 A34 34 0 0 1 55 32" stroke="white" stroke-width="4" fill="none" stroke-linecap="round"/>
  <path d="M50 28 L55 32 L50 38" stroke="white" stroke-width="3" fill="none" stroke-linecap="round" stroke-linejoin="round"/>

  <path d="M98 64 A34 34 0 0 1 73 96" stroke="white" stroke-width="4" fill="none" stroke-linecap="round"/>
  <path d="M78 100 L73 96 L78 90" stroke="white" stroke-width="3" fill="none" stroke-linecap="round" stroke-linejoin="round"/>

  <!-- Star (loyalty) -->
  <g transform="translate(85, 30) scale(0.5)">
    <path d="M12 2 L15 8 L22 9 L17 14 L18 21 L12 18 L6 21 L7 14 L2 9 L9 8 Z" fill="#fbbf24"/>
  </g>
</svg>
