<svg xmlns="http://www.w3.org/2000/svg" viewBox="0 0 128 128">
  <defs>
    <linearGradient id="grad" x1="0%" y1="0%" x2="100%" y2="100%">
      <stop offset="0%" style="stop-color:#f59e0b"/>
      <stop offset="100%" style="stop-color:#d97706"/>
    </linearGradient>
  </defs>
  <circle cx="64" cy="64" r="60" fill="url(#grad)"/>

  <!-- Receipt paper -->
  <path d="M40 20 L88 20 L88 108 L84 104 L80 108 L76 104 L72 108 L68 104 L64 108 L60 104 L56 108 L52 104 L48 108 L44 104 L40 108 Z" fill="white"/>

  <!-- Receipt lines -->
  <rect x="48" y="32" width="32" height="4" rx="2" fill="#fde68a"/>
  <rect x="48" y="44" width="28" height="3" rx="1" fill="#e5e7eb"/>
  <rect x="48" y="52" width="24" height="3" rx="1" fill="#e5e7eb"/>
  <rect x="48" y="60" width="30" height="3" rx="1" fill="#e5e7eb"/>

  <!-- Total -->
  <rect x="48" y="72" width="32" height="6" rx="2" fill="#d97706"/>

  <!-- Checkmark -->
  <circle cx="92" cy="36" r="16" fill="#22c55e"/>
  <path d="M84 36 L90 42 L100 30" stroke="white" stroke-width="4" stroke-linecap="round" stroke-linejoin="round" fill="none"/>
</svg>
