<svg xmlns="http://www.w3.org/2000/svg" viewBox="0 0 128 128">
  <defs>
    <linearGradient id="grad" x1="0%" y1="0%" x2="100%" y2="100%">
      <stop offset="0%" style="stop-color:#4f46e5"/>
      <stop offset="100%" style="stop-color:#7c3aed"/>
    </linearGradient>
  </defs>
  <circle cx="64" cy="64" r="60" fill="url(#grad)"/>
  <rect x="28" y="34" width="72" height="60" rx="8" fill="white"/>
  <rect x="28" y="34" width="72" height="18" rx="8" ry="8" fill="#e0e0e0"/>
  <circle cx="44" cy="34" r="6" fill="white" stroke="#4f46e5" stroke-width="2"/>
  <circle cx="84" cy="34" r="6" fill="white" stroke="#4f46e5" stroke-width="2"/>
  <line x1="44" y1="28" x2="44" y2="40" stroke="#4f46e5" stroke-width="2"/>
  <line x1="84" y1="28" x2="84" y2="40" stroke="#4f46e5" stroke-width="2"/>
  <rect x="36" y="60" width="16" height="12" rx="2" fill="#4f46e5"/>
  <rect x="56" y="60" width="16" height="12" rx="2" fill="#e0e0e0"/>
  <rect x="76" y="60" width="16" height="12" rx="2" fill="#e0e0e0"/>
  <rect x="36" y="76" width="16" height="12" rx="2" fill="#e0e0e0"/>
  <rect x="56" y="76" width="16" height="12" rx="2" fill="#7c3aed"/>
  <rect x="76" y="76" width="16" height="12" rx="2" fill="#e0e0e0"/>
</svg>
