<svg xmlns="http://www.w3.org/2000/svg" viewBox="0 0 128 128"><defs><linearGradient id="a" x1="0%" y1="0%" x2="100%" y2="100%"><stop offset="0%" style="stop-color:#10b981"/><stop offset="100%" style="stop-color:#059669"/></linearGradient></defs><rect x="10" y="30" width="50" height="50" rx="8" fill="white" transform="rotate(-10 35 55)"/><circle cx="25" cy="45" r="5" fill="#1e293b"/><circle cx="45" cy="45" r="5" fill="#1e293b"/><circle cx="25" cy="65" r="5" fill="#1e293b"/><circle cx="45" cy="65" r="5" fill="#1e293b"/><circle cx="35" cy="55" r="5" fill="#1e293b"/><rect x="58" y="40" width="50" height="50" rx="8" fill="white" transform="rotate(10 83 65)"/><circle cx="73" cy="55" r="5" fill="#1e293b"/><circle cx="93" cy="55" r="5" fill="#1e293b"/><circle cx="73" cy="75" r="5" fill="#1e293b"/><circle cx="93" cy="75" r="5" fill="#1e293b"/><circle cx="83" cy="65" r="5" fill="#1e293b"/><circle cx="73" cy="65" r="5" fill="#1e293b"/><rect x="34" y="70" width="60" height="40" rx="6" fill="url(#a)"/><text x="64" y="96" font-size="14" text-anchor="middle" fill="white" font-weight="bold">POKER</text></svg>
