<svg xmlns="http://www.w3.org/2000/svg" viewBox="0 0 128 128">
  <defs>
    <linearGradient id="grad" x1="0%" y1="0%" x2="100%" y2="100%">
      <stop offset="0%" style="stop-color:#8b5cf6"/>
      <stop offset="100%" style="stop-color:#7c3aed"/>
    </linearGradient>
  </defs>
  <circle cx="64" cy="64" r="60" fill="url(#grad)"/>
  <!-- Multiple browser windows -->
  <rect x="24" y="30" width="50" height="38" rx="4" fill="white"/>
  <rect x="24" y="30" width="50" height="10" rx="4" ry="4" fill="#ddd6fe"/>
  <circle cx="32" cy="35" r="2.5" fill="#f87171"/>
  <circle cx="40" cy="35" r="2.5" fill="#fbbf24"/>
  <circle cx="48" cy="35" r="2.5" fill="#34d399"/>
  <!-- Second window -->
  <rect x="40" y="46" width="50" height="38" rx="4" fill="white"/>
  <rect x="40" y="46" width="50" height="10" rx="4" ry="4" fill="#c4b5fd"/>
  <circle cx="48" cy="51" r="2.5" fill="#f87171"/>
  <circle cx="56" cy="51" r="2.5" fill="#fbbf24"/>
  <circle cx="64" cy="51" r="2.5" fill="#34d399"/>
  <!-- Third window -->
  <rect x="54" y="60" width="50" height="38" rx="4" fill="white"/>
  <rect x="54" y="60" width="50" height="10" rx="4" ry="4" fill="#a78bfa"/>
  <circle cx="62" cy="65" r="2.5" fill="#f87171"/>
  <circle cx="70" cy="65" r="2.5" fill="#fbbf24"/>
  <circle cx="78" cy="65" r="2.5" fill="#34d399"/>
  <!-- Save icon -->
  <circle cx="94" cy="94" r="16" fill="#22c55e"/>
  <path d="M86 94 L92 100 L102 88" fill="none" stroke="white" stroke-width="3" stroke-linecap="round" stroke-linejoin="round"/>
</svg>
