<svg xmlns="http://www.w3.org/2000/svg" viewBox="0 0 128 128">
  <defs>
    <linearGradient id="grad" x1="0%" y1="0%" x2="100%" y2="100%">
      <stop offset="0%" style="stop-color:#059669"/>
      <stop offset="100%" style="stop-color:#34d399"/>
    </linearGradient>
  </defs>
  <circle cx="64" cy="64" r="60" fill="url(#grad)"/>

  <!-- Coffee cup -->
  <path d="M40 50 L40 85 Q40 95 50 95 L78 95 Q88 95 88 85 L88 50 Z" fill="white"/>
  <path d="M88 55 L98 55 Q108 55 108 65 L108 70 Q108 80 98 80 L88 80" fill="none" stroke="white" stroke-width="6" stroke-linecap="round"/>

  <!-- Steam -->
  <path d="M52 40 Q52 32 58 32 Q64 32 64 40" fill="none" stroke="white" stroke-width="3" stroke-linecap="round" opacity="0.7"/>
  <path d="M64 40 Q64 32 70 32 Q76 32 76 40" fill="none" stroke="white" stroke-width="3" stroke-linecap="round" opacity="0.7"/>

  <!-- Saucer -->
  <ellipse cx="64" cy="98" rx="35" ry="6" fill="white" opacity="0.3"/>
</svg>
