<svg xmlns="http://www.w3.org/2000/svg" viewBox="0 0 128 128">
  <defs>
    <linearGradient id="grad" x1="0%" y1="0%" x2="100%" y2="100%">
      <stop offset="0%" style="stop-color:#ef4444"/>
      <stop offset="100%" style="stop-color:#dc2626"/>
    </linearGradient>
  </defs>
  <circle cx="64" cy="64" r="60" fill="url(#grad)"/>

  <!-- Clapperboard -->
  <rect x="28" y="40" width="72" height="50" rx="4" fill="white"/>
  <rect x="28" y="40" width="72" height="14" fill="#fecaca"/>

  <!-- Stripes -->
  <path d="M28 40 L38 40 L28 54 Z" fill="white"/>
  <path d="M48 40 L58 40 L48 54 Z" fill="white"/>
  <path d="M68 40 L78 40 L68 54 Z" fill="white"/>
  <path d="M88 40 L100 40 L100 50 L88 54 Z" fill="white"/>

  <!-- Play button -->
  <circle cx="64" cy="72" r="14" fill="#fecaca"/>
  <path d="M60 65 L72 72 L60 79 Z" fill="#dc2626"/>

  <!-- Lines on clapperboard -->
  <rect x="35" y="60" width="30" height="4" rx="2" fill="#fecaca"/>
  <rect x="35" y="80" width="24" height="4" rx="2" fill="#fecaca"/>
</svg>
