<svg xmlns="http://www.w3.org/2000/svg" viewBox="0 0 128 128">
  <defs>
    <linearGradient id="grad" x1="0%" y1="0%" x2="100%" y2="100%">
      <stop offset="0%" style="stop-color:#0ea5e9"/>
      <stop offset="100%" style="stop-color:#0284c7"/>
    </linearGradient>
  </defs>
  <circle cx="64" cy="64" r="60" fill="url(#grad)"/>

  <!-- Book -->
  <path d="M30 35 L30 95 L64 85 L98 95 L98 35 L64 45 L30 35 Z" fill="white"/>
  <path d="M64 45 L64 85" stroke="#0ea5e9" stroke-width="2"/>

  <!-- Speed lines -->
  <rect x="38" y="52" width="20" height="4" rx="2" fill="#0ea5e9" opacity="0.5"/>
  <rect x="40" y="60" width="18" height="4" rx="2" fill="#0ea5e9" opacity="0.7"/>
  <rect x="36" y="68" width="22" height="4" rx="2" fill="#0ea5e9"/>

  <rect x="70" y="52" width="20" height="4" rx="2" fill="#0ea5e9" opacity="0.5"/>
  <rect x="72" y="60" width="18" height="4" rx="2" fill="#0ea5e9" opacity="0.7"/>
  <rect x="68" y="68" width="22" height="4" rx="2" fill="#0ea5e9"/>

  <!-- Fast forward arrows -->
  <path d="M85 28 L95 35 L85 42" fill="none" stroke="white" stroke-width="4" stroke-linecap="round" stroke-linejoin="round"/>
  <path d="M95 28 L105 35 L95 42" fill="none" stroke="white" stroke-width="4" stroke-linecap="round" stroke-linejoin="round"/>
</svg>
