<svg xmlns="http://www.w3.org/2000/svg" viewBox="0 0 128 128">
  <defs>
    <linearGradient id="grad" x1="0%" y1="0%" x2="100%" y2="100%">
      <stop offset="0%" style="stop-color:#6366f1"/>
      <stop offset="100%" style="stop-color:#4f46e5"/>
    </linearGradient>
  </defs>
  <circle cx="64" cy="64" r="60" fill="url(#grad)"/>

  <!-- Document -->
  <rect x="35" y="25" width="58" height="75" rx="4" fill="white"/>
  <rect x="35" y="25" width="58" height="15" rx="4" fill="#e0e7ff"/>
  <rect x="35" y="36" width="58" height="4" fill="#e0e7ff"/>

  <!-- Document lines -->
  <rect x="42" y="50" width="35" height="4" rx="2" fill="#c7d2fe"/>
  <rect x="42" y="60" width="44" height="4" rx="2" fill="#c7d2fe"/>
  <rect x="42" y="70" width="30" height="4" rx="2" fill="#c7d2fe"/>
  <rect x="42" y="80" width="40" height="4" rx="2" fill="#c7d2fe"/>

  <!-- Update badge -->
  <circle cx="85" cy="30" r="15" fill="#22c55e"/>
  <path d="M79 30 L83 34 L91 26" stroke="white" stroke-width="3" fill="none" stroke-linecap="round" stroke-linejoin="round"/>

  <!-- Pencil icon -->
  <g transform="translate(72, 70) rotate(-45)">
    <rect x="0" y="0" width="6" height="20" rx="1" fill="#fbbf24"/>
    <polygon points="3,20 0,26 6,26" fill="#fbbf24"/>
    <rect x="0" y="0" width="6" height="4" fill="#f97316"/>
  </g>
</svg>
