<svg xmlns="http://www.w3.org/2000/svg" viewBox="0 0 128 128">
  <defs>
    <linearGradient id="grad" x1="0%" y1="0%" x2="100%" y2="100%">
      <stop offset="0%" style="stop-color:#fb923c"/>
      <stop offset="100%" style="stop-color:#ea580c"/>
    </linearGradient>
  </defs>
  <circle cx="64" cy="64" r="60" fill="url(#grad)"/>

  <!-- Quote bubble -->
  <rect x="28" y="30" width="72" height="50" rx="6" fill="white"/>
  <path d="M45 80 L55 92 L65 80" fill="white"/>

  <!-- Quote marks -->
  <text x="38" y="55" font-family="Georgia" font-size="32" fill="#fed7aa">"</text>
  <text x="82" y="70" font-family="Georgia" font-size="32" fill="#fed7aa">"</text>

  <!-- Stars -->
  <g fill="#fbbf24">
    <polygon points="50,42 52,48 58,48 53,52 55,58 50,54 45,58 47,52 42,48 48,48"/>
    <polygon points="64,42 66,48 72,48 67,52 69,58 64,54 59,58 61,52 56,48 62,48"/>
    <polygon points="78,42 80,48 86,48 81,52 83,58 78,54 73,58 75,52 70,48 76,48"/>
  </g>

  <!-- Lines -->
  <rect x="38" y="62" width="52" height="3" rx="1" fill="#fed7aa"/>
  <rect x="42" y="70" width="44" height="3" rx="1" fill="#fed7aa"/>
</svg>
