<svg xmlns="http://www.w3.org/2000/svg" viewBox="0 0 128 128"><defs><linearGradient id="a" x1="0%" y1="0%" x2="100%" y2="100%"><stop offset="0%" style="stop-color:#eab308"/><stop offset="100%" style="stop-color:#ca8a04"/></linearGradient></defs><circle cx="64" cy="64" r="60" fill="url(#a)"/><circle cx="64" cy="64" r="45" fill="url(#a)"/><path d="M64 19 L64 64 L94 34 Z" fill="#ef4444"/><path d="M64 19 L64 64 L34 34 Z" fill="#f97316"/><path d="M109 64 L64 64 L94 34 Z" fill="#eab308"/><path d="M109 64 L64 64 L94 94 Z" fill="#22c55e"/><path d="M64 109 L64 64 L94 94 Z" fill="#06b6d4"/><path d="M64 109 L64 64 L34 94 Z" fill="#3b82f6"/><path d="M19 64 L64 64 L34 94 Z" fill="#8b5cf6"/><path d="M19 64 L64 64 L34 34 Z" fill="#ec4899"/><circle cx="64" cy="64" r="12" fill="#1e293b"/><polygon points="64,10 58,22 70,22" fill="#fbbf24"/></svg>
