<svg xmlns="http://www.w3.org/2000/svg" viewBox="0 0 128 128">
  <defs>
    <linearGradient id="grad" x1="0%" y1="0%" x2="100%" y2="100%">
      <stop offset="0%" style="stop-color:#0ea5e9"/>
      <stop offset="100%" style="stop-color:#0369a1"/>
    </linearGradient>
  </defs>
  <circle cx="64" cy="64" r="60" fill="url(#grad)"/>

  <!-- Calendar base -->
  <rect x="28" y="32" width="72" height="68" rx="8" fill="white"/>

  <!-- Header -->
  <rect x="28" y="32" width="72" height="18" rx="8" fill="#bae6fd"/>

  <!-- Hooks -->
  <rect x="44" y="26" width="6" height="12" rx="2" fill="white"/>
  <rect x="78" y="26" width="6" height="12" rx="2" fill="white"/>

  <!-- Grid -->
  <rect x="36" y="56" width="10" height="10" rx="2" fill="#e0f2fe"/>
  <rect x="50" y="56" width="10" height="10" rx="2" fill="#e0f2fe"/>
  <rect x="64" y="56" width="10" height="10" rx="2" fill="#0ea5e9"/>
  <rect x="78" y="56" width="10" height="10" rx="2" fill="#e0f2fe"/>

  <rect x="36" y="70" width="10" height="10" rx="2" fill="#e0f2fe"/>
  <rect x="50" y="70" width="10" height="10" rx="2" fill="#e0f2fe"/>
  <rect x="64" y="70" width="10" height="10" rx="2" fill="#e0f2fe"/>
  <rect x="78" y="70" width="10" height="10" rx="2" fill="#e0f2fe"/>

  <rect x="36" y="84" width="10" height="10" rx="2" fill="#e0f2fe"/>
  <rect x="50" y="84" width="10" height="10" rx="2" fill="#e0f2fe"/>
</svg>
