<svg xmlns="http://www.w3.org/2000/svg" viewBox="0 0 128 128">
  <defs>
    <linearGradient id="grad" x1="0%" y1="0%" x2="100%" y2="100%">
      <stop offset="0%" style="stop-color:#3b82f6"/>
      <stop offset="100%" style="stop-color:#1d4ed8"/>
    </linearGradient>
  </defs>
  <circle cx="64" cy="64" r="60" fill="url(#grad)"/>

  <!-- Briefcase -->
  <rect x="30" y="45" width="68" height="45" rx="4" fill="white"/>
  <rect x="48" y="38" width="32" height="12" rx="3" fill="#93c5fd"/>
  <rect x="54" y="35" width="20" height="8" rx="2" fill="white"/>

  <!-- Handle -->
  <rect x="58" y="42" width="12" height="8" rx="2" fill="#1d4ed8"/>

  <!-- Lines on briefcase -->
  <rect x="40" y="58" width="48" height="4" rx="2" fill="#dbeafe"/>
  <rect x="40" y="68" width="40" height="3" rx="1" fill="#dbeafe"/>
  <rect x="40" y="76" width="32" height="3" rx="1" fill="#dbeafe"/>

  <!-- Person icon -->
  <circle cx="95" cy="32" r="10" fill="white" opacity="0.9"/>
  <circle cx="95" cy="28" r="5" fill="#93c5fd"/>
  <path d="M88 40 Q88 34 95 34 Q102 34 102 40" fill="#93c5fd"/>

  <!-- Plus sign -->
  <circle cx="105" cy="40" r="8" fill="#22c55e"/>
  <path d="M105 36 L105 44 M101 40 L109 40" stroke="white" stroke-width="2" stroke-linecap="round"/>
</svg>
