<svg xmlns="http://www.w3.org/2000/svg" viewBox="0 0 128 128">
  <defs><linearGradient id="grad" x1="0%" y1="0%" x2="100%" y2="100%"><stop offset="0%" style="stop-color:#3b82f6"/><stop offset="100%" style="stop-color:#2563eb"/></linearGradient></defs>
  <circle cx="64" cy="64" r="60" fill="url(#grad)"/>
  <path d="M64 30 Q40 30 40 50 L40 60 Q40 70 55 70 L73 70 Q88 70 88 80 L88 90 Q88 98 64 98 Q40 98 40 90" fill="none" stroke="white" stroke-width="6" stroke-linecap="round"/>
  <path d="M64 98 Q88 98 88 78 L88 68 Q88 58 73 58 L55 58 Q40 58 40 48 L40 38 Q40 30 64 30 Q88 30 88 38" fill="none" stroke="white" stroke-width="6" stroke-linecap="round"/>
  <circle cx="52" cy="42" r="5" fill="white"/>
  <circle cx="76" cy="86" r="5" fill="white"/>
</svg>
