<svg xmlns="http://www.w3.org/2000/svg" viewBox="0 0 128 128">
  <defs>
    <linearGradient id="grad" x1="0%" y1="0%" x2="100%" y2="100%">
      <stop offset="0%" style="stop-color:#0ea5e9"/>
      <stop offset="100%" style="stop-color:#0284c7"/>
    </linearGradient>
  </defs>
  <circle cx="64" cy="64" r="60" fill="url(#grad)"/>

  <!-- Clipboard -->
  <rect x="32" y="28" width="64" height="76" rx="6" fill="white"/>
  <rect x="44" y="20" width="40" height="16" rx="4" fill="#bae6fd"/>
  <circle cx="64" cy="28" r="4" fill="#0284c7"/>

  <!-- Lines -->
  <rect x="42" y="48" width="32" height="4" rx="2" fill="#0ea5e9"/>
  <rect x="42" y="58" width="44" height="3" rx="1" fill="#e0f2fe"/>
  <rect x="42" y="66" width="40" height="3" rx="1" fill="#e0f2fe"/>
  <rect x="42" y="74" width="36" height="3" rx="1" fill="#e0f2fe"/>

  <!-- Checkmarks -->
  <circle cx="42" cy="86" r="6" fill="#22c55e"/>
  <path d="M39 86 L41 88 L45 84" stroke="white" stroke-width="2" stroke-linecap="round" stroke-linejoin="round" fill="none"/>

  <circle cx="56" cy="86" r="6" fill="#22c55e"/>
  <path d="M53 86 L55 88 L59 84" stroke="white" stroke-width="2" stroke-linecap="round" stroke-linejoin="round" fill="none"/>

  <circle cx="70" cy="86" r="6" fill="#bae6fd"/>
</svg>
