<svg xmlns="http://www.w3.org/2000/svg" viewBox="0 0 128 128">
  <defs>
    <linearGradient id="grad" x1="0%" y1="0%" x2="100%" y2="100%">
      <stop offset="0%" style="stop-color:#475569"/>
      <stop offset="100%" style="stop-color:#334155"/>
    </linearGradient>
  </defs>
  <circle cx="64" cy="64" r="60" fill="url(#grad)"/>

  <!-- Newspaper -->
  <rect x="28" y="30" width="72" height="68" rx="4" fill="white"/>

  <!-- Header -->
  <rect x="34" y="36" width="60" height="8" rx="2" fill="#334155"/>

  <!-- Columns -->
  <rect x="34" y="50" width="26" height="40" rx="2" fill="#e2e8f0"/>
  <rect x="66" y="50" width="28" height="18" rx="2" fill="#e2e8f0"/>
  <rect x="66" y="74" width="28" height="16" rx="2" fill="#e2e8f0"/>

  <!-- Lines -->
  <rect x="36" y="54" width="22" height="2" rx="1" fill="#94a3b8"/>
  <rect x="36" y="60" width="18" height="2" rx="1" fill="#94a3b8"/>
  <rect x="36" y="66" width="20" height="2" rx="1" fill="#94a3b8"/>

  <!-- Megaphone -->
  <g transform="translate(85, 20)">
    <path d="M0 15 L20 5 L20 35 L0 25 Z" fill="white" opacity="0.9"/>
    <rect x="-5" y="15" width="8" height="10" rx="2" fill="white" opacity="0.9"/>
    <path d="M22 15 Q26 20 22 25" stroke="white" stroke-width="2" fill="none" stroke-linecap="round" opacity="0.7"/>
  </g>
</svg>
