<svg xmlns="http://www.w3.org/2000/svg" viewBox="0 0 128 128">
  <defs>
    <linearGradient id="grad" x1="0%" y1="0%" x2="100%" y2="100%">
      <stop offset="0%" style="stop-color:#64748b"/>
      <stop offset="100%" style="stop-color:#475569"/>
    </linearGradient>
  </defs>
  <circle cx="64" cy="64" r="60" fill="url(#grad)"/>

  <!-- Door with exit arrow -->
  <rect x="40" y="30" width="35" height="55" rx="3" fill="white"/>
  <rect x="42" y="32" width="31" height="51" rx="2" fill="#e2e8f0"/>
  <circle cx="68" cy="58" r="3" fill="#64748b"/>

  <!-- Exit arrow -->
  <path d="M78 55 L95 55 L95 48 L110 58 L95 68 L95 61 L78 61 Z" fill="white"/>

  <!-- Person leaving -->
  <g transform="translate(85, 65) scale(0.5)">
    <circle cx="20" cy="15" r="10" fill="#cbd5e1"/>
    <path d="M10 55 C10 35 20 30 20 30 C20 30 30 35 30 55" fill="#cbd5e1"/>
  </g>

  <!-- Clipboard/document -->
  <rect x="25" y="75" width="25" height="20" rx="2" fill="white"/>
  <rect x="28" y="79" width="12" height="2" rx="1" fill="#94a3b8"/>
  <rect x="28" y="83" width="18" height="2" rx="1" fill="#94a3b8"/>
  <rect x="28" y="87" width="15" height="2" rx="1" fill="#94a3b8"/>
</svg>
