<svg xmlns="http://www.w3.org/2000/svg" viewBox="0 0 128 128"><defs><linearGradient id="a" x1="0%" y1="0%" x2="100%" y2="100%"><stop offset="0%" style="stop-color:#14b8a6"/><stop offset="100%" style="stop-color:#0d9488"/></linearGradient></defs><circle cx="64" cy="64" r="60" fill="url(#a)"/><rect x="24" y="24" width="80" height="80" rx="4" fill="#1e293b"/><path d="M32 32 L32 48 M32 32 L56 32 M56 32 L56 48 M40 48 L56 48 M40 48 L40 64 M56 64 L72 64 M72 48 L72 64 M72 48 L88 48 M88 48 L88 64 M88 64 L96 64 M40 64 L40 80 M32 80 L40 80 M56 80 L72 80 M72 80 L72 96 M72 96 L96 96" stroke="#334155" stroke-width="4" stroke-linecap="round" fill="none"/><circle cx="36" cy="36" r="6" fill="#14b8a6"/><circle cx="92" cy="92" r="6" fill="#22c55e"/></svg>
