<svg xmlns="http://www.w3.org/2000/svg" viewBox="0 0 128 128">
  <defs>
    <linearGradient id="grad" x1="0%" y1="0%" x2="100%" y2="100%">
      <stop offset="0%" style="stop-color:#06b6d4"/>
      <stop offset="100%" style="stop-color:#0891b2"/>
    </linearGradient>
  </defs>
  <circle cx="64" cy="64" r="60" fill="url(#grad)"/>
  <!-- Tab group 1 - Blue -->
  <rect x="22" y="32" width="40" height="28" rx="4" fill="#3b82f6"/>
  <rect x="22" y="32" width="40" height="8" rx="4" ry="4" fill="#60a5fa"/>
  <rect x="26" y="44" width="32" height="3" rx="1.5" fill="white" opacity="0.5"/>
  <rect x="26" y="50" width="24" height="3" rx="1.5" fill="white" opacity="0.5"/>
  <!-- Tab group 2 - Green -->
  <rect x="66" y="32" width="40" height="28" rx="4" fill="#22c55e"/>
  <rect x="66" y="32" width="40" height="8" rx="4" ry="4" fill="#4ade80"/>
  <rect x="70" y="44" width="32" height="3" rx="1.5" fill="white" opacity="0.5"/>
  <rect x="70" y="50" width="24" height="3" rx="1.5" fill="white" opacity="0.5"/>
  <!-- Tab group 3 - Purple -->
  <rect x="22" y="68" width="40" height="28" rx="4" fill="#a855f7"/>
  <rect x="22" y="68" width="40" height="8" rx="4" ry="4" fill="#c084fc"/>
  <rect x="26" y="80" width="32" height="3" rx="1.5" fill="white" opacity="0.5"/>
  <rect x="26" y="86" width="24" height="3" rx="1.5" fill="white" opacity="0.5"/>
  <!-- Tab group 4 - Orange -->
  <rect x="66" y="68" width="40" height="28" rx="4" fill="#f97316"/>
  <rect x="66" y="68" width="40" height="8" rx="4" ry="4" fill="#fb923c"/>
  <rect x="70" y="80" width="32" height="3" rx="1.5" fill="white" opacity="0.5"/>
  <rect x="70" y="86" width="24" height="3" rx="1.5" fill="white" opacity="0.5"/>
</svg>
