<svg xmlns="http://www.w3.org/2000/svg" viewBox="0 0 128 128">
  <defs>
    <linearGradient id="grad" x1="0%" y1="0%" x2="100%" y2="100%">
      <stop offset="0%" style="stop-color:#1e3a8a"/>
      <stop offset="100%" style="stop-color:#3b82f6"/>
    </linearGradient>
  </defs>
  <circle cx="64" cy="64" r="60" fill="url(#grad)"/>
  <!-- Main window -->
  <rect x="22" y="28" width="50" height="40" rx="4" fill="white"/>
  <rect x="22" y="28" width="50" height="10" rx="4" ry="4" fill="#60a5fa"/>
  <circle cx="28" cy="33" r="2" fill="#ef4444"/>
  <circle cx="34" cy="33" r="2" fill="#f59e0b"/>
  <circle cx="40" cy="33" r="2" fill="#22c55e"/>
  <rect x="26" y="42" width="42" height="3" rx="1" fill="#e2e8f0"/>
  <rect x="26" y="48" width="30" height="3" rx="1" fill="#e2e8f0"/>
  <rect x="26" y="54" width="36" height="3" rx="1" fill="#e2e8f0"/>
  <rect x="26" y="60" width="20" height="3" rx="1" fill="#e2e8f0"/>

  <!-- Secondary window -->
  <rect x="56" y="52" width="50" height="40" rx="4" fill="white"/>
  <rect x="56" y="52" width="50" height="10" rx="4" ry="4" fill="#a78bfa"/>
  <circle cx="62" cy="57" r="2" fill="#ef4444"/>
  <circle cx="68" cy="57" r="2" fill="#f59e0b"/>
  <circle cx="74" cy="57" r="2" fill="#22c55e"/>
  <rect x="60" y="66" width="42" height="3" rx="1" fill="#e2e8f0"/>
  <rect x="60" y="72" width="30" height="3" rx="1" fill="#e2e8f0"/>
  <rect x="60" y="78" width="36" height="3" rx="1" fill="#e2e8f0"/>
  <rect x="60" y="84" width="25" height="3" rx="1" fill="#e2e8f0"/>

  <!-- Arrange arrows -->
  <path d="M80 35 L90 35 L90 45" fill="none" stroke="#22c55e" stroke-width="3" stroke-linecap="round" stroke-linejoin="round"/>
  <polygon points="90,48 86,42 94,42" fill="#22c55e"/>
</svg>
