<svg xmlns="http://www.w3.org/2000/svg" viewBox="0 0 128 128">
  <defs><linearGradient id="grad" x1="0%" y1="0%" x2="100%" y2="100%"><stop offset="0%" style="stop-color:#ec4899"/><stop offset="100%" style="stop-color:#db2777"/></linearGradient></defs>
  <circle cx="64" cy="64" r="60" fill="url(#grad)"/>
  <path d="M35 60 C35 50 45 45 55 50 L64 55 L73 50 C83 45 93 50 93 60 L93 70 C93 80 83 85 73 80 L64 75 L55 80 C45 85 35 80 35 70 Z" fill="white"/>
  <circle cx="45" cy="58" r="8" fill="#f9a8d4"/>
  <circle cx="83" cy="58" r="8" fill="#f9a8d4"/>
  <path d="M45 75 L64 65 L83 75" stroke="white" stroke-width="4" fill="none" stroke-linecap="round"/>
  <path d="M50 85 L64 75 L78 85" stroke="white" stroke-width="3" fill="none" stroke-linecap="round"/>
</svg>
