<svg xmlns="http://www.w3.org/2000/svg" viewBox="0 0 128 128">
  <defs>
    <linearGradient id="grad" x1="0%" y1="0%" x2="100%" y2="100%">
      <stop offset="0%" style="stop-color:#10b981"/>
      <stop offset="100%" style="stop-color:#059669"/>
    </linearGradient>
  </defs>
  <circle cx="64" cy="64" r="60" fill="url(#grad)"/>

  <!-- Chart background -->
  <rect x="28" y="32" width="72" height="64" rx="8" fill="white"/>

  <!-- Grid lines -->
  <line x1="36" y1="50" x2="92" y2="50" stroke="#d1fae5" stroke-width="1"/>
  <line x1="36" y1="64" x2="92" y2="64" stroke="#d1fae5" stroke-width="1"/>
  <line x1="36" y1="78" x2="92" y2="78" stroke="#d1fae5" stroke-width="1"/>

  <!-- Stock chart line going up -->
  <polyline points="36,78 48,72 56,76 68,58 76,50 88,42" fill="none" stroke="#10b981" stroke-width="4" stroke-linecap="round" stroke-linejoin="round"/>

  <!-- Data points -->
  <circle cx="36" cy="78" r="3" fill="#10b981"/>
  <circle cx="48" cy="72" r="3" fill="#10b981"/>
  <circle cx="56" cy="76" r="3" fill="#10b981"/>
  <circle cx="68" cy="58" r="3" fill="#10b981"/>
  <circle cx="76" cy="50" r="3" fill="#10b981"/>
  <circle cx="88" cy="42" r="3" fill="#10b981"/>

  <!-- Up arrow -->
  <path d="M84 38 L88 42 L92 38" stroke="#10b981" stroke-width="3" stroke-linecap="round" fill="none"/>
</svg>
