<svg xmlns="http://www.w3.org/2000/svg" viewBox="0 0 128 128">
  <defs>
    <linearGradient id="grad" x1="0%" y1="0%" x2="100%" y2="100%">
      <stop offset="0%" style="stop-color:#eab308"/>
      <stop offset="100%" style="stop-color:#ca8a04"/>
    </linearGradient>
  </defs>
  <circle cx="64" cy="64" r="60" fill="url(#grad)"/>

  <!-- Chat bubble -->
  <path d="M28 40 L100 40 Q104 40 104 44 L104 76 Q104 80 100 80 L60 80 L44 96 L44 80 L28 80 Q24 80 24 76 L24 44 Q24 40 28 40 Z" fill="white"/>

  <!-- Text lines -->
  <rect x="36" y="52" width="40" height="4" rx="2" fill="#eab308"/>
  <rect x="36" y="62" width="52" height="4" rx="2" fill="#fde047"/>
  <rect x="36" y="72" width="30" height="4" rx="2" fill="#fde047"/>

  <!-- Lightning bolt for quick -->
  <path d="M84 48 L76 60 L82 60 L74 76 L88 56 L82 56 L90 44 Z" fill="#ca8a04"/>
</svg>
