<svg xmlns="http://www.w3.org/2000/svg" viewBox="0 0 128 128"><defs><linearGradient id="a" x1="0%" y1="0%" x2="100%" y2="100%"><stop offset="0%" style="stop-color:#14b8a6"/><stop offset="100%" style="stop-color:#0d9488"/></linearGradient></defs><circle cx="64" cy="64" r="60" fill="url(#a)"/><rect x="20" y="50" width="88" height="50" rx="8" fill="#1e293b"/><rect x="26" y="56" width="14" height="12" rx="2" fill="#334155"/><rect x="43" y="56" width="14" height="12" rx="2" fill="#334155"/><rect x="60" y="56" width="14" height="12" rx="2" fill="#22c55e"/><rect x="77" y="56" width="14" height="12" rx="2" fill="#334155"/><rect x="94" y="56" width="14" height="12" rx="2" fill="#334155"/><rect x="30" y="72" width="14" height="12" rx="2" fill="#334155"/><rect x="47" y="72" width="14" height="12" rx="2" fill="#334155"/><rect x="64" y="72" width="14" height="12" rx="2" fill="#334155"/><rect x="81" y="72" width="14" height="12" rx="2" fill="#334155"/><rect x="38" y="88" width="52" height="8" rx="2" fill="#475569"/><text x="64" y="38" font-size="16" font-weight="bold" fill="white" text-anchor="middle">WPM</text></svg>
